<svg width="832" height="226" viewBox="0 0 832 226" fill="none" xmlns="http://www.w3.org/2000/svg">
<path d="M47.4 132.84C39.4 132.84 32.04 130.96 25.32 127.2C18.68 123.44 13.4 118.24 9.48 111.6C5.56 104.96 3.6 97.48 3.6 89.16C3.6 80.84 5.56 73.36 9.48 66.72C13.4 60.08 18.68 54.92 25.32 51.24C32.04 47.48 39.4 45.6 47.4 45.6C55.4 45.6 62.72 47.48 69.36 51.24C76 54.92 81.24 60.08 85.08 66.72C89 73.36 90.96 80.84 90.96 89.16C90.96 97.48 89 104.96 85.08 111.6C81.24 118.24 75.96 123.44 69.24 127.2C62.6 130.96 55.32 132.84 47.4 132.84ZM47.4 108C52.68 108 56.76 106.32 59.64 102.96C62.52 99.52 63.96 94.92 63.96 89.16C63.96 83.32 62.52 78.72 59.64 75.36C56.76 71.92 52.68 70.2 47.4 70.2C42.04 70.2 37.92 71.92 35.04 75.36C32.16 78.72 30.72 83.32 30.72 89.16C30.72 94.92 32.16 99.52 35.04 102.96C37.92 106.32 42.04 108 47.4 108ZM127.21 73.56C128.89 70.44 131.29 68 134.41 66.24C137.61 64.4 141.41 63.48 145.81 63.48C151.09 63.48 155.85 64.88 160.09 67.68C164.33 70.4 167.65 74.4 170.05 79.68C172.53 84.88 173.77 91.04 173.77 98.16C173.77 105.28 172.53 111.48 170.05 116.76C167.65 121.96 164.33 125.96 160.09 128.76C155.85 131.48 151.09 132.84 145.81 132.84C141.41 132.84 137.61 131.96 134.41 130.2C131.29 128.36 128.89 125.88 127.21 122.76V164.4H100.57V64.32H127.21V73.56ZM146.77 98.16C146.77 94.56 145.85 91.76 144.01 89.76C142.17 87.76 139.81 86.76 136.93 86.76C134.05 86.76 131.69 87.76 129.85 89.76C128.01 91.76 127.09 94.56 127.09 98.16C127.09 101.76 128.01 104.56 129.85 106.56C131.69 108.56 134.05 109.56 136.93 109.56C139.81 109.56 142.17 108.56 144.01 106.56C145.85 104.56 146.77 101.76 146.77 98.16ZM247.653 97.56C247.653 99.4 247.533 101.16 247.293 102.84H204.453C204.853 108.68 207.293 111.6 211.773 111.6C214.653 111.6 216.733 110.28 218.013 107.64H246.213C245.253 112.44 243.213 116.76 240.093 120.6C237.053 124.36 233.173 127.36 228.453 129.6C223.813 131.76 218.693 132.84 213.093 132.84C206.373 132.84 200.373 131.44 195.093 128.64C189.893 125.84 185.813 121.84 182.853 116.64C179.973 111.36 178.533 105.2 178.533 98.16C178.533 91.12 179.973 85 182.853 79.8C185.813 74.52 189.893 70.48 195.093 67.68C200.373 64.88 206.373 63.48 213.093 63.48C219.813 63.48 225.773 64.88 230.973 67.68C236.253 70.4 240.333 74.32 243.213 79.44C246.173 84.56 247.653 90.6 247.653 97.56ZM220.653 91.2C220.653 88.96 219.933 87.28 218.493 86.16C217.053 84.96 215.253 84.36 213.093 84.36C208.373 84.36 205.613 86.64 204.813 91.2H220.653ZM303.478 63.84C311.238 63.84 317.278 66.44 321.598 71.64C325.998 76.84 328.198 83.88 328.198 92.76V132H301.678V96.12C301.678 92.92 300.798 90.4 299.038 88.56C297.358 86.64 295.078 85.68 292.198 85.68C289.238 85.68 286.918 86.64 285.238 88.56C283.558 90.4 282.718 92.92 282.718 96.12V132H256.078V64.32H282.718V74.64C284.798 71.44 287.558 68.84 290.998 66.84C294.518 64.84 298.678 63.84 303.478 63.84ZM386.781 68.28V78.72H413.181V98.76H386.781V110.76H416.781V132H360.141V47.04H416.781V68.28H386.781ZM474.22 63.84C481.98 63.84 488.02 66.44 492.34 71.64C496.74 76.84 498.94 83.88 498.94 92.76V132H472.42V96.12C472.42 92.92 471.54 90.4 469.78 88.56C468.1 86.64 465.82 85.68 462.94 85.68C459.98 85.68 457.66 86.64 455.98 88.56C454.3 90.4 453.46 92.92 453.46 96.12V132H426.82V64.32H453.46V74.64C455.54 71.44 458.3 68.84 461.74 66.84C465.26 64.84 469.42 63.84 474.22 63.84ZM576.012 97.56C576.012 99.4 575.892 101.16 575.652 102.84H532.812C533.212 108.68 535.652 111.6 540.132 111.6C543.012 111.6 545.092 110.28 546.372 107.64H574.572C573.612 112.44 571.572 116.76 568.452 120.6C565.412 124.36 561.532 127.36 556.812 129.6C552.172 131.76 547.052 132.84 541.452 132.84C534.732 132.84 528.732 131.44 523.452 128.64C518.252 125.84 514.172 121.84 511.212 116.64C508.332 111.36 506.892 105.2 506.892 98.16C506.892 91.12 508.332 85 511.212 79.8C514.172 74.52 518.252 70.48 523.452 67.68C528.732 64.88 534.732 63.48 541.452 63.48C548.172 63.48 554.132 64.88 559.332 67.68C564.612 70.4 568.692 74.32 571.572 79.44C574.532 84.56 576.012 90.6 576.012 97.56ZM549.012 91.2C549.012 88.96 548.292 87.28 546.852 86.16C545.412 84.96 543.612 84.36 541.452 84.36C536.732 84.36 533.972 86.64 533.172 91.2H549.012ZM611.078 76.8C613.798 72.88 617.118 69.76 621.038 67.44C624.958 65.04 629.038 63.84 633.278 63.84V92.28H625.718C620.678 92.28 616.958 93.16 614.558 94.92C612.238 96.68 611.078 99.8 611.078 104.28V132H584.438V64.32H611.078V76.8ZM664.813 63.48C669.213 63.48 673.013 64.4 676.213 66.24C679.413 68 681.853 70.44 683.533 73.56V64.32H710.053V130.8C710.053 137.12 708.893 142.88 706.573 148.08C704.253 153.28 700.493 157.44 695.293 160.56C690.173 163.68 683.573 165.24 675.493 165.24C664.613 165.24 655.973 162.68 649.573 157.56C643.253 152.52 639.653 145.64 638.773 136.92H664.933C665.653 140.44 668.533 142.2 673.573 142.2C676.693 142.2 679.133 141.4 680.893 139.8C682.653 138.2 683.533 135.2 683.533 130.8V122.76C681.853 125.88 679.413 128.36 676.213 130.2C673.013 131.96 669.213 132.84 664.813 132.84C659.533 132.84 654.773 131.48 650.533 128.76C646.293 125.96 642.933 121.96 640.453 116.76C638.053 111.48 636.853 105.28 636.853 98.16C636.853 91.04 638.053 84.88 640.453 79.68C642.933 74.4 646.293 70.4 650.533 67.68C654.773 64.88 659.533 63.48 664.813 63.48ZM683.533 98.16C683.533 94.56 682.613 91.76 680.773 89.76C678.933 87.76 676.573 86.76 673.693 86.76C670.813 86.76 668.453 87.76 666.613 89.76C664.773 91.76 663.853 94.56 663.853 98.16C663.853 101.76 664.773 104.56 666.613 106.56C668.453 108.56 670.813 109.56 673.693 109.56C676.573 109.56 678.933 108.56 680.773 106.56C682.613 104.56 683.533 101.76 683.533 98.16ZM735.456 58.92C730.816 58.92 727.096 57.68 724.296 55.2C721.496 52.72 720.096 49.6 720.096 45.84C720.096 42 721.496 38.84 724.296 36.36C727.096 33.8 730.816 32.52 735.456 32.52C740.016 32.52 743.696 33.8 746.496 36.36C749.296 38.84 750.696 42 750.696 45.84C750.696 49.6 749.296 52.72 746.496 55.2C743.696 57.68 740.016 58.92 735.456 58.92ZM748.656 64.32V132H722.016V64.32H748.656ZM826.208 97.56C826.208 99.4 826.088 101.16 825.848 102.84H783.008C783.408 108.68 785.848 111.6 790.328 111.6C793.208 111.6 795.288 110.28 796.568 107.64H824.768C823.808 112.44 821.768 116.76 818.648 120.6C815.608 124.36 811.728 127.36 807.008 129.6C802.368 131.76 797.248 132.84 791.648 132.84C784.928 132.84 778.928 131.44 773.648 128.64C768.448 125.84 764.368 121.84 761.408 116.64C758.528 111.36 757.088 105.2 757.088 98.16C757.088 91.12 758.528 85 761.408 79.8C764.368 74.52 768.448 70.48 773.648 67.68C778.928 64.88 784.928 63.48 791.648 63.48C798.368 63.48 804.328 64.88 809.528 67.68C814.808 70.4 818.888 74.32 821.768 79.44C824.728 84.56 826.208 90.6 826.208 97.56ZM799.208 91.2C799.208 88.96 798.488 87.28 797.048 86.16C795.608 84.96 793.808 84.36 791.648 84.36C786.928 84.36 784.168 86.64 783.368 91.2H799.208Z" fill="#25184E"/>
<path d="M744.429 183.866C746.43 183.866 747.846 185.822 747.222 187.723L740.371 208.58C739.863 210.128 738.418 211.175 736.788 211.175C735.157 211.175 733.711 210.126 733.204 208.576L726.375 187.698C725.757 185.808 727.165 183.866 729.153 183.866C730.445 183.866 731.584 184.715 731.954 185.952L736.777 202.091L741.614 185.961C741.987 184.718 743.131 183.866 744.429 183.866Z" fill="#25184E"/>
<path d="M775.511 203.805C775.511 204.871 775.308 205.881 774.902 206.833C774.496 207.772 773.937 208.591 773.226 209.289C772.528 209.988 771.702 210.54 770.75 210.946C769.811 211.352 768.802 211.556 767.722 211.556C766.758 211.556 765.831 211.391 764.942 211.06C764.053 210.718 763.247 210.223 762.524 209.575C761.813 210.223 761.013 210.718 760.124 211.06C759.248 211.391 758.321 211.556 757.344 211.556C756.265 211.556 755.255 211.352 754.316 210.946C753.376 210.54 752.551 209.988 751.84 209.289C751.142 208.591 750.59 207.772 750.183 206.833C749.777 205.881 749.574 204.871 749.574 203.805V193.417C749.574 191.981 750.738 190.817 752.173 190.817C753.609 190.817 754.773 191.981 754.773 193.417V203.805C754.773 204.16 754.836 204.497 754.963 204.814C755.103 205.119 755.287 205.392 755.516 205.633C755.757 205.862 756.03 206.046 756.334 206.185C756.652 206.312 756.988 206.376 757.344 206.376C757.699 206.376 758.036 206.312 758.353 206.185C758.67 206.046 758.95 205.862 759.191 205.633C759.432 205.392 759.616 205.119 759.743 204.814C759.883 204.497 759.953 204.16 759.953 203.805V193.407C759.953 191.977 761.112 190.817 762.543 190.817C763.973 190.817 765.133 191.977 765.133 193.407V203.805C765.133 204.16 765.202 204.497 765.342 204.814C765.482 205.119 765.666 205.392 765.894 205.633C766.135 205.862 766.408 206.046 766.713 206.185C767.031 206.312 767.367 206.376 767.722 206.376C768.078 206.376 768.414 206.312 768.732 206.185C769.049 206.046 769.322 205.862 769.551 205.633C769.792 205.392 769.982 205.119 770.122 204.814C770.262 204.497 770.331 204.16 770.331 203.805V193.407C770.331 191.977 771.491 190.817 772.921 190.817C774.352 190.817 775.511 191.977 775.511 193.407V203.805Z" fill="#25184E"/>
<path d="M799.03 210.343C799.03 210.802 798.658 211.175 798.198 211.175C797.931 211.175 797.68 211.046 797.524 210.83L795.754 208.375C795.259 208.82 794.732 209.239 794.174 209.632C793.628 210.013 793.05 210.349 792.441 210.641C791.831 210.921 791.203 211.143 790.555 211.308C789.921 211.473 789.273 211.556 788.613 211.556C787.178 211.556 785.826 211.314 784.557 210.832C783.3 210.349 782.195 209.651 781.243 208.737C780.304 207.81 779.561 206.68 779.015 205.347C778.469 204.014 778.196 202.497 778.196 200.796C778.196 199.209 778.469 197.755 779.015 196.435C779.561 195.102 780.304 193.959 781.243 193.007C782.195 192.055 783.3 191.319 784.557 190.798C785.826 190.265 787.178 189.998 788.613 189.998C789.273 189.998 789.927 190.081 790.575 190.246C791.222 190.411 791.85 190.64 792.46 190.932C793.069 191.224 793.647 191.566 794.193 191.96C794.751 192.353 795.272 192.779 795.754 193.236L797.516 191.125C797.679 190.93 797.92 190.817 798.174 190.817C798.646 190.817 799.03 191.201 799.03 191.673V210.343ZM793.793 200.796C793.793 200.085 793.653 199.399 793.374 198.739C793.107 198.066 792.739 197.476 792.269 196.968C791.8 196.448 791.247 196.035 790.613 195.73C789.991 195.413 789.324 195.254 788.613 195.254C787.902 195.254 787.229 195.375 786.594 195.616C785.972 195.857 785.426 196.213 784.957 196.683C784.5 197.152 784.138 197.736 783.871 198.435C783.605 199.12 783.471 199.907 783.471 200.796C783.471 201.685 783.605 202.478 783.871 203.176C784.138 203.862 784.5 204.44 784.957 204.909C785.426 205.379 785.972 205.735 786.594 205.976C787.229 206.217 787.902 206.338 788.613 206.338C789.324 206.338 789.991 206.185 790.613 205.881C791.247 205.563 791.8 205.151 792.269 204.643C792.739 204.122 793.107 203.532 793.374 202.872C793.653 202.199 793.793 201.507 793.793 200.796Z" fill="#25184E"/>
<path d="M808.247 208.556C808.247 210.002 807.075 211.175 805.628 211.175C804.182 211.175 803.01 210.002 803.01 208.556V185.285C803.01 183.839 804.182 182.667 805.628 182.667C807.075 182.667 808.247 183.839 808.247 185.285V208.556Z" fill="#25184E"/>
<path d="M831.975 210.343C831.975 210.802 831.603 211.175 831.144 211.175C830.876 211.175 830.625 211.046 830.469 210.83L828.699 208.375C828.204 208.82 827.677 209.239 827.119 209.632C826.573 210.013 825.995 210.349 825.386 210.641C824.777 210.921 824.148 211.143 823.501 211.308C822.866 211.473 822.218 211.556 821.558 211.556C820.124 211.556 818.772 211.314 817.502 210.832C816.245 210.349 815.141 209.651 814.188 208.737C813.249 207.81 812.506 206.68 811.96 205.347C811.414 204.014 811.141 202.497 811.141 200.796C811.141 199.209 811.414 197.755 811.96 196.435C812.506 195.102 813.249 193.959 814.188 193.007C815.141 192.055 816.245 191.319 817.502 190.798C818.772 190.265 820.124 189.998 821.558 189.998C822.218 189.998 822.872 190.081 823.52 190.246C824.167 190.411 824.796 190.64 825.405 190.932C826.014 191.224 826.592 191.566 827.138 191.96C827.697 192.353 828.217 192.779 828.699 193.236L830.461 191.125C830.624 190.93 830.865 190.817 831.119 190.817C831.592 190.817 831.975 191.201 831.975 191.673V210.343ZM826.738 200.796C826.738 200.085 826.598 199.399 826.319 198.739C826.052 198.066 825.684 197.476 825.215 196.968C824.745 196.448 824.193 196.035 823.558 195.73C822.936 195.413 822.269 195.254 821.558 195.254C820.847 195.254 820.174 195.375 819.54 195.616C818.918 195.857 818.372 196.213 817.902 196.683C817.445 197.152 817.083 197.736 816.816 198.435C816.55 199.12 816.416 199.907 816.416 200.796C816.416 201.685 816.55 202.478 816.816 203.176C817.083 203.862 817.445 204.44 817.902 204.909C818.372 205.379 818.918 205.735 819.54 205.976C820.174 206.217 820.847 206.338 821.558 206.338C822.269 206.338 822.936 206.185 823.558 205.881C824.193 205.563 824.745 205.151 825.215 204.643C825.684 204.122 826.052 203.532 826.319 202.872C826.598 202.199 826.738 201.507 826.738 200.796Z" fill="#25184E"/>
<path d="M533.057 194.909C533.057 196.92 532.364 198.596 530.977 199.936C529.614 201.253 527.522 201.912 524.703 201.912H520.057V212H516.903V187.837H524.703C527.43 187.837 529.498 188.496 530.908 189.813C532.341 191.131 533.057 192.829 533.057 194.909ZM524.703 199.312C526.459 199.312 527.753 198.931 528.585 198.168C529.417 197.405 529.833 196.319 529.833 194.909C529.833 191.928 528.123 190.437 524.703 190.437H520.057V199.312H524.703ZM545.264 212.312C543.484 212.312 541.866 211.908 540.41 211.099C538.977 210.29 537.845 209.146 537.013 207.667C536.204 206.164 535.8 204.431 535.8 202.467C535.8 200.525 536.216 198.815 537.048 197.336C537.903 195.834 539.058 194.69 540.514 193.904C541.97 193.095 543.6 192.691 545.402 192.691C547.205 192.691 548.834 193.095 550.29 193.904C551.746 194.69 552.89 195.822 553.722 197.301C554.577 198.78 555.005 200.502 555.005 202.467C555.005 204.431 554.566 206.164 553.688 207.667C552.832 209.146 551.665 210.29 550.186 211.099C548.707 211.908 547.066 212.312 545.264 212.312ZM545.264 209.539C546.396 209.539 547.459 209.273 548.453 208.741C549.447 208.21 550.244 207.412 550.845 206.349C551.469 205.286 551.781 203.992 551.781 202.467C551.781 200.941 551.48 199.647 550.88 198.584C550.279 197.521 549.493 196.735 548.522 196.227C547.552 195.695 546.5 195.429 545.368 195.429C544.212 195.429 543.149 195.695 542.178 196.227C541.231 196.735 540.468 197.521 539.89 198.584C539.312 199.647 539.024 200.941 539.024 202.467C539.024 204.015 539.301 205.321 539.856 206.384C540.433 207.447 541.196 208.244 542.144 208.776C543.091 209.284 544.131 209.539 545.264 209.539ZM584.459 193.003L578.531 212H575.273L570.697 196.92L566.121 212H562.862L556.899 193.003H560.123L564.491 208.949L569.206 193.003H572.43L577.041 208.984L581.339 193.003H584.459ZM604.923 201.773C604.923 202.374 604.889 203.01 604.819 203.68H589.635C589.751 205.552 590.387 207.02 591.542 208.083C592.721 209.123 594.142 209.643 595.806 209.643C597.17 209.643 598.302 209.331 599.203 208.707C600.128 208.06 600.775 207.204 601.145 206.141H604.542C604.034 207.967 603.017 209.458 601.491 210.613C599.966 211.746 598.071 212.312 595.806 212.312C594.003 212.312 592.386 211.908 590.953 211.099C589.543 210.29 588.434 209.146 587.625 207.667C586.816 206.164 586.411 204.431 586.411 202.467C586.411 200.502 586.804 198.78 587.59 197.301C588.376 195.822 589.474 194.69 590.883 193.904C592.316 193.095 593.957 192.691 595.806 192.691C597.609 192.691 599.203 193.084 600.59 193.869C601.977 194.655 603.04 195.741 603.779 197.128C604.542 198.492 604.923 200.04 604.923 201.773ZM601.665 201.115C601.665 199.913 601.399 198.884 600.867 198.029C600.336 197.151 599.608 196.492 598.683 196.053C597.782 195.591 596.777 195.36 595.667 195.36C594.073 195.36 592.709 195.868 591.577 196.885C590.467 197.902 589.832 199.312 589.67 201.115H601.665ZM612.242 196.088C612.797 195.002 613.583 194.158 614.6 193.557C615.64 192.956 616.899 192.656 618.378 192.656V195.915H617.546C614.01 195.915 612.242 197.833 612.242 201.669V212H609.088V193.003H612.242V196.088ZM639.353 201.773C639.353 202.374 639.319 203.01 639.249 203.68H624.065C624.181 205.552 624.816 207.02 625.972 208.083C627.151 209.123 628.572 209.643 630.236 209.643C631.599 209.643 632.732 209.331 633.633 208.707C634.558 208.06 635.205 207.204 635.575 206.141H638.972C638.463 207.967 637.447 209.458 635.921 210.613C634.396 211.746 632.501 212.312 630.236 212.312C628.433 212.312 626.815 211.908 625.383 211.099C623.973 210.29 622.863 209.146 622.055 207.667C621.246 206.164 620.841 204.431 620.841 202.467C620.841 200.502 621.234 198.78 622.02 197.301C622.806 195.822 623.903 194.69 625.313 193.904C626.746 193.095 628.387 192.691 630.236 192.691C632.039 192.691 633.633 193.084 635.02 193.869C636.407 194.655 637.47 195.741 638.209 197.128C638.972 198.492 639.353 200.04 639.353 201.773ZM636.095 201.115C636.095 199.913 635.829 198.884 635.297 198.029C634.766 197.151 634.038 196.492 633.113 196.053C632.212 195.591 631.207 195.36 630.097 195.36C628.503 195.36 627.139 195.868 626.007 196.885C624.897 197.902 624.262 199.312 624.1 201.115H636.095ZM642.339 202.432C642.339 200.491 642.731 198.792 643.517 197.336C644.303 195.857 645.378 194.713 646.741 193.904C648.128 193.095 649.676 192.691 651.387 192.691C652.866 192.691 654.241 193.037 655.512 193.731C656.783 194.401 657.754 195.291 658.424 196.4V186.347H661.613V212H658.424V208.429C657.8 209.562 656.875 210.498 655.651 211.237C654.426 211.954 652.993 212.312 651.352 212.312C649.665 212.312 648.128 211.896 646.741 211.064C645.378 210.232 644.303 209.065 643.517 207.563C642.731 206.06 642.339 204.35 642.339 202.432ZM658.424 202.467C658.424 201.034 658.135 199.786 657.557 198.723C656.979 197.66 656.194 196.851 655.2 196.296C654.229 195.718 653.155 195.429 651.976 195.429C650.797 195.429 649.723 195.707 648.752 196.261C647.781 196.816 647.007 197.625 646.429 198.688C645.851 199.751 645.563 200.999 645.563 202.432C645.563 203.888 645.851 205.159 646.429 206.245C647.007 207.308 647.781 208.129 648.752 208.707C649.723 209.261 650.797 209.539 651.976 209.539C653.155 209.539 654.229 209.261 655.2 208.707C656.194 208.129 656.979 207.308 657.557 206.245C658.135 205.159 658.424 203.9 658.424 202.467ZM679.341 196.539C679.988 195.406 680.936 194.482 682.184 193.765C683.432 193.049 684.853 192.691 686.448 192.691C688.158 192.691 689.695 193.095 691.059 193.904C692.422 194.713 693.497 195.857 694.283 197.336C695.068 198.792 695.461 200.491 695.461 202.432C695.461 204.35 695.068 206.06 694.283 207.563C693.497 209.065 692.411 210.232 691.024 211.064C689.66 211.896 688.135 212.312 686.448 212.312C684.807 212.312 683.363 211.954 682.115 211.237C680.89 210.521 679.965 209.608 679.341 208.499V212H676.187V186.347H679.341V196.539ZM692.237 202.432C692.237 200.999 691.948 199.751 691.371 198.688C690.793 197.625 690.007 196.816 689.013 196.261C688.043 195.707 686.968 195.429 685.789 195.429C684.634 195.429 683.559 195.718 682.565 196.296C681.595 196.851 680.809 197.671 680.208 198.757C679.63 199.82 679.341 201.057 679.341 202.467C679.341 203.9 679.63 205.159 680.208 206.245C680.809 207.308 681.595 208.129 682.565 208.707C683.559 209.261 684.634 209.539 685.789 209.539C686.968 209.539 688.043 209.261 689.013 208.707C690.007 208.129 690.793 207.308 691.371 206.245C691.948 205.159 692.237 203.888 692.237 202.432ZM715.976 193.003L704.536 220.944H701.278L705.022 211.792L697.36 193.003H700.862L706.824 208.395L712.718 193.003H715.976Z" fill="#25184E"/>
</svg>
